<svg width="125" height="16" viewBox="0 0 125 16" fill="none" xmlns="http://www.w3.org/2000/svg">
<path d="M100.94 13.92H100.1C99.076 12.056 98.564 10.136 98.564 8.16C98.564 6.184 99.076 4.264 100.1 2.4H100.94C99.972 4.28 99.488 6.2 99.488 8.16C99.488 10.12 99.972 12.04 100.94 13.92ZM104.822 12.12C103.974 12.12 103.254 11.864 102.662 11.352C102.078 10.832 101.786 10.184 101.786 9.408H102.83C102.862 9.912 103.066 10.324 103.442 10.644C103.818 10.956 104.278 11.112 104.822 11.112C105.318 11.112 105.73 10.976 106.058 10.704C106.386 10.432 106.55 10.056 106.55 9.576C106.55 9.064 106.382 8.68 106.046 8.424C105.718 8.168 105.266 8.04 104.69 8.04H104.054V7.092H104.738C105.194 7.092 105.566 6.964 105.854 6.708C106.15 6.452 106.302 6.12 106.31 5.712C106.31 5.312 106.162 4.984 105.866 4.728C105.578 4.472 105.214 4.344 104.774 4.344C104.27 4.344 103.846 4.492 103.502 4.788C103.158 5.084 102.986 5.496 102.986 6.024H101.93C101.93 5.208 102.202 4.556 102.746 4.068C103.29 3.58 103.966 3.336 104.774 3.336C105.518 3.336 106.134 3.552 106.622 3.984C107.118 4.408 107.366 4.972 107.366 5.676C107.358 6.084 107.246 6.452 107.03 6.78C106.822 7.108 106.55 7.36 106.214 7.536C106.646 7.712 106.986 7.984 107.234 8.352C107.482 8.712 107.606 9.132 107.606 9.612C107.606 10.356 107.346 10.96 106.826 11.424C106.306 11.888 105.638 12.12 104.822 12.12ZM111.507 12.12C110.739 12.12 110.075 11.88 109.515 11.4C108.955 10.92 108.667 10.352 108.651 9.696H109.707C109.803 10.112 110.015 10.452 110.343 10.716C110.671 10.98 111.059 11.112 111.507 11.112C112.027 11.112 112.463 10.936 112.815 10.584C113.167 10.232 113.343 9.8 113.343 9.288C113.343 8.768 113.175 8.332 112.839 7.98C112.503 7.628 112.075 7.452 111.555 7.452C110.843 7.452 110.307 7.74 109.947 8.316L108.963 8.028L109.839 3.48H113.823V4.488H110.667L110.199 6.924C110.615 6.628 111.111 6.48 111.687 6.48C112.479 6.48 113.127 6.76 113.631 7.32C114.143 7.872 114.399 8.572 114.399 9.42C114.399 10.172 114.123 10.812 113.571 11.34C113.019 11.86 112.331 12.12 111.507 12.12ZM120.983 11.004V12H115.463V11.592C115.463 11.296 115.507 11.016 115.595 10.752C115.691 10.48 115.795 10.252 115.907 10.068C116.019 9.884 116.195 9.68 116.435 9.456C116.675 9.224 116.863 9.056 116.999 8.952C117.135 8.84 117.363 8.672 117.683 8.448C118.003 8.216 118.215 8.064 118.319 7.992C118.887 7.576 119.279 7.228 119.495 6.948C119.719 6.66 119.831 6.284 119.831 5.82C119.831 5.372 119.687 5.016 119.399 4.752C119.111 4.48 118.735 4.344 118.271 4.344C117.783 4.344 117.367 4.492 117.023 4.788C116.679 5.084 116.507 5.496 116.507 6.024H115.451C115.451 5.224 115.715 4.576 116.243 4.08C116.779 3.584 117.451 3.336 118.259 3.336C119.011 3.336 119.635 3.552 120.131 3.984C120.635 4.416 120.887 5.032 120.887 5.832C120.887 6.44 120.739 6.96 120.443 7.392C120.147 7.816 119.639 8.288 118.919 8.808C118.783 8.904 118.591 9.04 118.343 9.216C118.095 9.384 117.903 9.52 117.767 9.624C117.631 9.728 117.479 9.856 117.311 10.008C117.151 10.152 117.023 10.308 116.927 10.476C116.839 10.636 116.775 10.812 116.735 11.004H120.983ZM122.754 13.92H121.914C122.882 12.04 123.366 10.12 123.366 8.16C123.366 6.2 122.882 4.28 121.914 2.4H122.754C123.778 4.264 124.29 6.184 124.29 8.16C124.29 10.136 123.778 12.056 122.754 13.92Z" fill="#828282"/>
<path d="M6.88892 1.90479L8.74292 5.85431L12.8889 6.49154L9.88892 9.56409L10.5969 13.9048L6.88892 11.8543L3.18092 13.9048L3.88892 9.56409L0.888916 6.49154L5.03492 5.85431L6.88892 1.90479Z" fill="#F2994A"/>
<path d="M24.8889 1.90479L26.7429 5.85431L30.8889 6.49154L27.8889 9.56409L28.5969 13.9048L24.8889 11.8543L21.1809 13.9048L21.8889 9.56409L18.8889 6.49154L23.0349 5.85431L24.8889 1.90479Z" fill="#F2994A"/>
<path d="M42.8889 1.90479L44.7429 5.85431L48.8889 6.49154L45.8889 9.56409L46.5969 13.9048L42.8889 11.8543L39.1809 13.9048L39.8889 9.56409L36.8889 6.49154L41.0349 5.85431L42.8889 1.90479Z" fill="#F2994A"/>
<path d="M60.8889 1.90479L62.7429 5.85431L66.8889 6.49154L63.8889 9.56409L64.5969 13.9048L60.8889 11.8543L57.1809 13.9048L57.8889 9.56409L54.8889 6.49154L59.0349 5.85431L60.8889 1.90479Z" fill="#F2994A"/>
<path d="M78.8889 1.90479L80.7429 5.85431L84.8889 6.49154L81.8889 9.56409L82.5969 13.9048L78.8889 11.8543L75.1809 13.9048L75.8889 9.56409L72.8889 6.49154L77.0349 5.85431L78.8889 1.90479Z" fill="white" stroke="#F2994A" stroke-linecap="round" stroke-linejoin="round"/>
</svg>
